# xmcd CD database file
#
# Track frame offsets:
#	150
#	17326
#	37551
#	59520
#	77210
#	95404
#	113301
#	130598
#	147834
#	165542
#	180542
#	199082
#
# Disc length: 2905 seconds
#
# Revision: 0
# Processed by: cddbd v1.5.2PL0 Copyright (c) Steve Scherf et al.
# Submitted via: CDex 1.70beta2
#
DISCID=870b570c
DTITLE=Pochy Familia Y Su Cocoband - Pochy Familia Y Su Cocoband
DYEAR=2004
DGENRE=Merengue
TTITLE0=La Barriguita
TTITLE1=Amor De Lejos
TTITLE2=Cuando Eramos Novios.. Y En El Matrimonio
TTITLE3=Cosas De Ella (Panti Negro)
TTITLE4=Que Lo Revisen Bien
TTITLE5=Coco Reggaeton
TTITLE6=Dominicanita
TTITLE7=Ella Cree Que Ta Buena
TTITLE8=El Divorcio
TTITLE9=Loquito Por Ti
TTITLE10=Las Mujeres De Los Ta
TTITLE11=La Barriguita (Versión)
EXTD=YEAR: 2004
EXTT0=
EXTT1=
EXTT2=
EXTT3=
EXTT4=
EXTT5=
EXTT6=
EXTT7=
EXTT8=
EXTT9=
EXTT10=
EXTT11=
PLAYORDER=
